<?xml version="1.0" standalone="no"?>
<!DOCTYPE svg PUBLIC "-//W3C//DTD SVG 20010904//EN"
 "http://www.w3.org/TR/2001/REC-SVG-20010904/DTD/svg10.dtd">
<svg version="1.0" xmlns="http://www.w3.org/2000/svg"
 width="959.000000pt" height="959.000000pt" viewBox="0 0 959.000000 959.000000"
 preserveAspectRatio="xMidYMid meet">
<metadata>
Created by potrace 1.14, written by Peter Selinger 2001-2017
</metadata>
<g transform="translate(0.000000,959.000000) scale(0.100000,-0.100000)"
fill="#000000" stroke="none">
<path d="M2446 9580 c12 -5 132 -11 265 -15 134 -3 295 -8 356 -9 141 -4 148
-8 140 -91 -5 -50 -2 -67 14 -93 12 -21 19 -51 19 -83 0 -28 8 -88 19 -133 10
-44 24 -109 31 -143 7 -35 18 -67 25 -73 8 -7 11 -32 8 -78 -4 -73 8 -109 28
-82 8 11 9 5 5 -25 -6 -44 10 -165 23 -178 5 -5 72 -15 151 -23 78 -7 146 -17
151 -20 11 -6 80 -13 389 -38 102 -8 223 -21 270 -30 47 -9 148 -18 225 -20
77 -2 160 -8 185 -14 25 -6 111 -15 191 -20 128 -8 149 -11 176 -32 18 -12 38
-20 47 -17 19 8 29 -7 21 -33 -4 -11 -12 -17 -21 -13 -15 5 -14 -26 2 -117 3
-19 5 -63 5 -97 0 -41 6 -81 19 -113 11 -29 20 -74 20 -105 0 -44 4 -57 20
-67 15 -10 20 -24 20 -56 0 -40 26 -142 37 -142 2 0 1 9 -2 20 -9 28 9 25 22
-3 6 -13 17 -24 25 -24 12 0 12 5 4 23 -6 12 -14 18 -17 12 -4 -5 -9 -3 -12 6
-3 8 -2 18 3 21 6 4 10 21 10 39 0 42 35 65 69 45 11 -8 21 -18 21 -22 0 -19
-22 -48 -34 -44 -15 6 -39 -50 -25 -59 5 -3 9 2 9 10 0 9 4 16 9 16 18 0 71
-22 71 -30 0 -11 -19 -23 -40 -26 -93 -15 -101 -17 -98 -33 2 -10 14 -16 31
-17 24 -1 32 6 28 29 -2 14 27 7 33 -8 7 -20 66 -20 92 0 17 13 17 14 2 15
-12 0 -18 8 -18 24 0 13 -3 31 -6 40 -5 12 1 16 23 16 25 0 33 6 48 40 20 45
31 50 40 20 4 -11 11 -17 17 -14 7 5 9 1 5 -9 -9 -25 16 -21 41 6 16 17 22 36
22 70 0 26 5 47 10 47 6 0 10 -13 10 -29 0 -18 6 -31 17 -35 10 -4 14 -4 11 0
-4 3 4 18 18 33 24 25 24 26 4 29 -11 2 -20 6 -20 10 0 13 39 32 54 26 9 -3
19 5 28 23 7 15 20 28 28 29 20 0 41 -16 34 -27 -3 -5 -7 -26 -9 -46 -2 -20
-8 -39 -13 -42 -5 -3 -12 -31 -16 -61 -3 -30 -7 -64 -9 -75 -1 -14 -15 -24
-43 -33 -40 -12 -41 -14 -51 -75 -12 -66 -2 -87 39 -87 10 0 24 -11 33 -24 13
-19 29 -25 99 -35 46 -6 91 -9 100 -5 9 4 24 0 34 -9 9 -8 39 -17 66 -20 26
-2 60 -14 75 -24 29 -22 83 -35 106 -27 19 8 19 63 0 88 -8 11 -15 28 -15 38
0 10 -4 18 -10 18 -5 0 -10 8 -10 18 0 11 -8 34 -17 53 -14 25 -17 54 -16 114
2 87 20 175 34 175 5 0 9 20 9 45 0 30 -4 45 -13 45 -17 0 -35 31 -42 76 -17
109 -19 99 30 145 25 23 45 48 45 55 0 7 6 19 13 26 15 14 31 66 28 85 -1 7 3
22 9 33 6 11 13 48 17 83 3 34 9 80 13 102 5 22 13 67 20 100 19 100 34 140
53 143 24 5 113 92 121 119 4 11 13 27 21 33 8 7 15 22 15 35 0 12 15 41 33
65 50 67 58 83 44 92 -9 6 -9 8 0 8 7 0 15 11 19 25 3 13 14 27 24 30 9 3 25
14 34 23 13 16 14 23 3 45 -10 22 -19 27 -47 27 -19 0 -46 9 -59 19 -21 16
-22 20 -10 39 8 12 20 20 27 17 8 -3 10 0 6 6 -8 14 44 109 73 132 13 10 23
24 23 31 0 8 14 16 31 20 40 8 352 8 373 0 25 -10 19 -45 -15 -80 -30 -31 -32
-54 -4 -54 14 0 31 -37 21 -47 -11 -11 16 -33 41 -33 13 0 26 -7 30 -17 6 -16
26 -42 92 -118 10 -11 23 -42 31 -68 12 -45 15 -48 44 -45 30 3 31 2 37 -49 9
-73 12 -77 59 -102 l41 -21 24 26 c13 14 25 35 27 47 6 43 26 28 32 -25 3 -29
8 -75 12 -102 3 -27 2 -51 -3 -55 -13 -8 -35 -124 -27 -145 3 -9 12 -16 19
-16 7 0 14 -20 18 -54 5 -52 25 -92 70 -138 9 -10 17 -29 17 -43 0 -14 6 -25
13 -25 8 0 7 -4 -3 -10 -11 -7 -11 -10 -2 -10 7 0 11 -3 8 -8 -2 -4 2 -41 11
-82 8 -41 17 -102 20 -134 3 -41 8 -55 14 -45 6 9 9 -6 9 -46 -1 -33 2 -103 5
-155 8 -110 8 -176 2 -244 l-5 -48 34 5 c29 5 34 3 34 -14 0 -17 -3 -18 -21
-7 -17 11 -22 10 -30 -4 -6 -10 -17 -18 -24 -18 -8 0 -15 -9 -15 -20 0 -11 7
-20 15 -20 10 0 15 -10 15 -30 0 -17 5 -30 13 -30 9 0 9 -2 0 -8 -6 -4 -11
-14 -10 -22 4 -37 -16 -150 -26 -150 -8 0 -7 -4 1 -12 30 -30 53 57 47 181 -3
56 -1 71 11 71 9 0 14 -11 14 -32 l1 -33 19 35 c13 23 19 29 20 17 0 -10 4
-16 9 -13 11 7 31 -38 31 -69 0 -14 4 -25 8 -25 14 0 32 48 32 85 0 19 5 37
10 40 6 3 10 22 10 41 0 19 5 34 11 34 7 0 10 -15 7 -40 -2 -28 0 -40 9 -40 8
0 13 14 13 40 0 22 5 40 10 40 6 0 10 -24 10 -54 0 -38 5 -58 17 -67 13 -11
17 -11 20 -1 3 6 16 12 29 12 22 0 24 4 26 58 l1 57 7 -45 7 -45 1 43 c2 53
19 55 24 2 2 -22 0 -40 -4 -40 -5 0 -8 -7 -8 -15 0 -11 11 -15 40 -15 29 0 40
4 40 15 0 9 -9 15 -23 15 -20 0 -22 4 -19 40 3 31 8 40 23 40 10 0 19 -7 19
-15 0 -11 11 -15 40 -15 29 0 40 4 40 15 0 12 13 15 55 15 l55 0 0 40 c0 36 3
40 25 40 16 0 25 -6 25 -15 0 -21 88 -21 96 0 8 20 34 19 50 -2 13 -17 13 -17
14 0 0 14 9 17 55 17 l55 0 0 40 c0 29 -4 40 -15 40 -12 0 -15 16 -15 80 0 44
4 80 9 80 5 0 11 9 14 20 3 11 10 20 17 20 7 0 14 -9 17 -20 3 -11 9 -20 14
-20 5 0 9 -18 9 -40 0 -36 3 -40 25 -40 23 0 25 4 25 40 0 29 4 40 15 40 11 0
15 -11 15 -40 l0 -40 40 0 c29 0 40 -4 40 -15 0 -11 11 -15 40 -15 29 0 40 4
40 15 0 11 11 15 40 15 29 0 40 -4 40 -15 0 -12 15 -15 74 -15 42 0 76 4 78
10 2 6 2 31 0 55 -4 44 -5 45 -38 45 -33 0 -34 -1 -34 -40 0 -29 -4 -40 -15
-40 -11 0 -15 11 -15 40 0 29 4 40 15 40 8 0 15 4 15 9 0 5 18 11 40 13 l40 4
0 -53 c0 -50 1 -53 25 -53 23 0 25 4 25 40 0 29 4 40 15 40 11 0 15 -11 15
-40 l0 -40 40 0 c29 0 40 -4 40 -15 0 -12 15 -15 75 -15 l75 0 0 895 0 895
-3582 -1 c-2034 0 -3574 -4 -3562 -9z m5447 -1693 c-3 -27 1 -57 11 -81 23
-55 20 -73 -11 -82 -51 -14 -63 -12 -65 10 -2 37 2 60 14 67 7 5 11 26 10 49
-3 48 6 83 19 75 5 -4 9 -1 9 5 0 6 4 9 9 6 5 -3 6 -25 4 -49z m697 -97 c0
-29 -4 -40 -15 -40 -9 0 -15 9 -15 25 0 23 -4 25 -40 25 -29 0 -40 4 -40 15 0
12 13 15 55 15 l55 0 0 -40z m-380 -27 c0 -7 -11 -13 -25 -13 -29 0 -31 7 -8
32 13 14 18 16 25 6 4 -7 8 -19 8 -25z m-2753 -165 c-3 -8 -6 -5 -6 6 -1 11 2
17 5 13 3 -3 4 -12 1 -19z m2423 -13 c0 -14 -4 -25 -10 -25 -5 0 -10 11 -10
25 0 14 5 25 10 25 6 0 10 -11 10 -25z m40 0 c0 -16 -6 -25 -15 -25 -9 0 -15
9 -15 25 0 16 6 25 15 25 9 0 15 -9 15 -25z"/>
<path d="M6755 9327 c-3 -6 -1 -25 3 -42 7 -24 14 -31 40 -33 22 -2 34 2 38
12 9 23 -5 68 -19 63 -7 -2 -22 0 -35 4 -15 6 -24 5 -27 -4z"/>
<path d="M6991 8035 c-14 -8 -31 -26 -39 -42 -8 -15 -23 -38 -35 -50 -14 -16
-18 -30 -14 -53 5 -22 3 -30 -7 -30 -8 0 -16 -10 -20 -22 -3 -13 -26 -54 -51
-92 l-45 -69 21 -23 c12 -12 27 -20 35 -17 8 3 14 0 14 -6 0 -6 -7 -11 -15
-11 -11 0 -15 -13 -15 -54 0 -30 -4 -57 -9 -60 -5 -3 -12 -21 -15 -41 -4 -19
-18 -48 -31 -64 -14 -16 -25 -34 -25 -40 0 -7 -12 -35 -27 -64 -15 -29 -27
-55 -28 -59 0 -4 -6 -13 -12 -19 -32 -32 -1 -63 51 -53 20 3 36 12 36 18 0 16
71 50 79 39 3 -5 20 -19 37 -31 l32 -22 16 25 c9 13 16 31 16 40 0 8 6 15 14
15 21 0 46 39 46 71 0 14 9 38 20 52 11 14 20 30 20 36 0 7 7 14 15 17 10 4
15 19 15 43 0 21 7 46 15 57 8 10 15 38 15 60 0 36 -4 44 -35 65 -40 28 -45
49 -12 49 27 0 67 38 67 64 0 9 7 31 16 47 10 21 15 58 16 116 0 92 -5 103
-54 103 -15 0 -30 5 -33 10 -8 14 -45 11 -74 -5z"/>
<path d="M5761 7814 c0 -11 3 -14 6 -6 3 7 2 16 -1 19 -3 4 -6 -2 -5 -13z"/>
<path d="M7760 7810 c0 -11 2 -20 4 -20 2 0 6 9 9 20 3 11 1 20 -4 20 -5 0 -9
-9 -9 -20z"/>
<path d="M8820 7740 c0 -5 9 -10 20 -10 11 0 20 5 20 10 0 6 -9 10 -20 10 -11
0 -20 -4 -20 -10z"/>
<path d="M9440 7710 c0 -22 5 -40 10 -40 6 0 10 18 10 40 0 22 -4 40 -10 40
-5 0 -10 -18 -10 -40z"/>
<path d="M9500 7710 c0 -22 5 -40 10 -40 6 0 10 18 10 40 0 22 -4 40 -10 40
-5 0 -10 -18 -10 -40z"/>
<path d="M5676 7727 c3 -10 9 -15 12 -12 3 3 0 11 -7 18 -10 9 -11 8 -5 -6z"/>
<path d="M8828 7673 c7 -3 16 -2 19 1 4 3 -2 6 -13 5 -11 0 -14 -3 -6 -6z"/>
<path d="M5252 7595 c0 -16 2 -22 5 -12 2 9 2 23 0 30 -3 6 -5 -1 -5 -18z"/>
<path d="M8640 7470 c0 -29 4 -40 15 -40 11 0 15 11 15 40 0 29 -4 40 -15 40
-11 0 -15 -11 -15 -40z"/>
<path d="M7881 7414 c0 -11 3 -14 6 -6 3 7 2 16 -1 19 -3 4 -6 -2 -5 -13z"/>
<path d="M8080 7310 c0 -29 4 -40 15 -40 11 0 15 11 15 40 0 29 -4 40 -15 40
-11 0 -15 -11 -15 -40z"/>
<path d="M8480 7303 c0 -8 14 -13 40 -13 22 0 40 4 40 9 0 5 -18 11 -40 13
-28 2 -40 0 -40 -9z"/>
<path d="M583 7254 c-3 -8 -1 -20 6 -27 8 -8 11 -4 11 16 0 30 -7 35 -17 11z"/>
<path d="M9185 7180 c3 -5 8 -10 11 -10 2 0 4 5 4 10 0 6 -5 10 -11 10 -5 0
-7 -4 -4 -10z"/>
<path d="M4467 6913 c-10 -9 -8 -33 2 -33 5 0 11 9 14 20 5 20 -3 26 -16 13z"/>
<path d="M4401 6894 c0 -11 3 -14 6 -6 3 7 2 16 -1 19 -3 4 -6 -2 -5 -13z"/>
<path d="M3010 6870 c-14 -11 -34 -18 -45 -16 -27 6 -147 -64 -160 -92 -6 -14
-24 -26 -46 -32 -20 -6 -42 -17 -49 -25 -15 -19 -61 -41 -100 -50 -16 -4 -30
-10 -30 -14 0 -4 -18 -18 -40 -30 -22 -12 -48 -33 -56 -46 -9 -13 -30 -27 -47
-31 -42 -9 -107 -42 -107 -54 0 -6 -9 -10 -20 -10 -13 0 -20 -7 -20 -19 0 -11
-5 -23 -10 -26 -6 -4 -8 -11 -5 -16 4 -5 -4 -13 -17 -18 -23 -10 -23 -10 4
-10 34 -1 58 -11 58 -23 0 -6 12 -19 26 -30 18 -15 22 -24 15 -31 -15 -15 -14
-24 8 -44 11 -10 22 -30 26 -45 5 -21 3 -27 -15 -33 -12 -4 -25 -18 -31 -32
-6 -16 -14 -23 -24 -19 -16 6 -31 -33 -27 -66 2 -9 -2 -19 -8 -23 -20 -12 -10
-25 20 -25 17 0 39 9 51 21 19 19 59 34 59 22 0 -3 -9 -14 -21 -24 -11 -9 -19
-23 -18 -31 6 -48 3 -51 -68 -43 -38 4 -71 12 -75 19 -5 7 -8 3 -8 -9 0 -31
12 -42 55 -49 l40 -8 -27 -14 c-18 -9 -25 -20 -21 -29 4 -13 24 -15 116 -13
98 3 110 5 113 21 1 11 5 21 8 24 3 3 -5 14 -17 24 -12 10 -16 18 -9 19 6 0
12 8 12 18 0 21 30 52 50 52 12 0 11 19 -5 75 -5 17 2 25 37 44 24 13 51 32
60 42 10 10 25 22 33 26 9 5 18 22 21 39 3 16 9 33 15 38 5 6 9 20 9 33 0 13
4 23 9 23 5 0 11 9 14 21 3 11 15 23 26 26 11 3 19 9 16 13 -3 5 4 11 15 15
11 3 20 11 20 16 0 6 -9 8 -19 4 -26 -8 -73 5 -68 19 2 6 18 17 35 25 32 15
36 25 32 82 0 14 6 32 15 39 10 8 21 24 26 37 5 13 15 23 24 23 8 0 15 6 15
13 0 8 18 22 40 33 31 15 40 25 42 49 2 23 9 31 27 33 13 2 31 10 38 18 8 8
23 14 34 14 27 0 47 44 29 65 -17 21 -50 19 -80 -5z m-565 -469 c-3 -12 -13
-21 -21 -21 -8 0 -14 -6 -14 -14 0 -8 -4 -17 -9 -20 -5 -4 -7 3 -4 14 3 11 14
25 24 31 11 5 19 17 19 26 0 9 3 14 6 10 3 -3 3 -15 -1 -26z m99 -79 c2 -4 -9
-29 -25 -55 -16 -26 -29 -53 -29 -59 0 -8 -14 -13 -38 -13 -26 0 -37 5 -37 15
0 8 -4 18 -10 22 -6 5 -3 8 6 8 8 0 24 6 34 14 16 12 17 16 6 30 -22 27 -7 43
43 44 25 1 47 -2 50 -6z"/>
<path d="M4410 6860 c20 -13 40 -13 40 0 0 6 -12 10 -27 10 -22 0 -25 -2 -13
-10z"/>
<path d="M1280 6654 c0 -22 2 -25 15 -14 12 10 13 16 4 26 -16 20 -19 18 -19
-12z"/>
<path d="M1550 6620 c0 -5 5 -10 10 -10 6 0 10 5 10 10 0 6 -4 10 -10 10 -5 0
-10 -4 -10 -10z"/>
<path d="M719 6575 c-1 -28 0 -51 5 -82 1 -7 5 -16 9 -19 4 -4 7 -17 7 -29 0
-25 45 -75 66 -75 8 0 14 -7 14 -16 0 -8 14 -20 30 -25 17 -6 30 -15 30 -19 0
-8 53 -30 71 -30 5 0 9 6 9 14 0 8 7 17 16 20 20 8 14 65 -11 103 -13 20 -23
24 -53 21 -33 -3 -38 0 -59 37 -12 22 -28 44 -36 50 -7 5 -19 20 -26 33 -6 12
-20 22 -29 22 -10 0 -23 5 -30 12 -9 9 -12 5 -13 -17z"/>
<path d="M1440 6460 c0 -5 -18 -13 -40 -16 -30 -5 -40 -11 -41 -25 -4 -68 -7
-64 46 -65 41 0 52 -4 60 -22 16 -36 36 -28 23 9 -8 24 -7 38 7 69 9 21 14 43
11 49 -9 14 -66 15 -66 1z"/>
<path d="M1070 6280 c-8 -5 -17 -7 -21 -4 -18 11 -18 -31 1 -48 11 -10 22 -31
26 -46 12 -55 15 -60 39 -66 29 -7 109 23 85 32 -8 3 -21 13 -28 24 -7 10 -19
18 -26 18 -25 0 -49 27 -55 63 -5 29 -9 34 -21 27z"/>
<path d="M2160 6170 c0 -5 12 -10 26 -10 14 0 23 4 19 10 -3 6 -15 10 -26 10
-10 0 -19 -4 -19 -10z"/>
<path d="M2107 6044 c-35 -19 -26 -34 19 -34 31 0 35 3 32 22 -4 28 -16 31
-51 12z"/>
<path d="M8576 5992 c-4 -11 -4 -32 0 -47 l7 -27 14 33 c12 28 12 35 -1 47
-12 12 -15 12 -20 -6z"/>
<path d="M8420 5980 c-19 -6 -9 -8 35 -8 42 -1 54 2 40 8 -24 10 -42 10 -75 0z"/>
<path d="M8293 5973 c15 -2 39 -2 55 0 15 2 2 4 -28 4 -30 0 -43 -2 -27 -4z"/>
<path d="M2057 5954 c-11 -12 3 -24 29 -24 16 0 24 5 22 13 -5 13 -40 22 -51
11z"/>
<path d="M5835 5940 c-13 -14 -29 -20 -52 -18 -49 3 -62 -16 -21 -32 18 -8 46
-24 61 -37 l29 -23 -39 0 c-21 0 -96 5 -167 10 -158 12 -374 -9 -446 -42 -19
-9 -62 -19 -95 -23 -42 -4 -72 -15 -100 -34 -22 -16 -51 -32 -65 -36 -14 -4
-38 -18 -53 -31 -16 -13 -33 -24 -38 -24 -5 0 -17 -8 -28 -17 -41 -39 -134
-117 -170 -144 -22 -15 -42 -37 -46 -48 -3 -12 -15 -26 -26 -31 -10 -6 -19
-17 -19 -24 0 -8 -7 -16 -15 -20 -8 -3 -15 -12 -15 -20 0 -9 -9 -20 -20 -26
-11 -6 -20 -16 -20 -23 0 -7 -18 -40 -40 -75 -23 -36 -40 -75 -40 -92 0 -16
-13 -48 -29 -72 -21 -32 -30 -61 -36 -112 -5 -47 -17 -90 -40 -135 -25 -50
-35 -85 -40 -146 -5 -50 -14 -92 -26 -111 -13 -22 -19 -49 -18 -85 1 -30 -4
-78 -10 -108 -6 -29 -11 -76 -11 -103 0 -42 -3 -50 -24 -57 -13 -5 -26 -16
-29 -24 -3 -8 -19 -18 -36 -22 -38 -8 -39 -20 -3 -54 l27 -26 -29 -3 c-20 -3
-25 -6 -16 -12 8 -5 10 -15 5 -26 -5 -13 -9 -15 -12 -6 -7 19 -89 16 -97 -4
-4 -10 -13 -13 -25 -9 -13 4 -23 0 -29 -10 -5 -9 -12 -16 -15 -16 -22 3 -28
-2 -37 -24 -5 -14 -16 -25 -25 -25 -8 0 -21 -12 -28 -27 -16 -38 -25 -43 -74
-43 -32 0 -46 5 -55 20 -13 21 -38 27 -38 10 0 -5 -13 -10 -30 -10 -16 0 -30
4 -30 9 0 5 -3 16 -6 25 -5 12 1 16 24 16 17 0 34 5 37 10 3 6 -5 10 -19 10
-14 0 -36 5 -50 12 -24 10 -24 12 -8 24 16 11 16 13 -1 32 -18 20 -18 20 2 27
11 3 20 11 18 18 -1 6 23 15 58 22 126 22 109 45 -33 45 -124 0 -158 -6 -142
-25 8 -9 6 -14 -5 -19 -18 -7 -20 -26 -2 -26 18 0 47 -37 47 -60 0 -14 -7 -20
-22 -20 -21 0 -21 -1 -4 -13 24 -18 25 -84 2 -119 -9 -14 -16 -30 -15 -34 4
-23 -3 -32 -28 -37 -16 -3 -37 -13 -48 -21 -20 -16 -20 -16 4 -35 l24 -18 -34
-44 c-19 -24 -42 -50 -52 -57 -10 -8 -23 -20 -30 -29 -7 -8 -20 -23 -29 -33
-10 -11 -13 -22 -8 -25 11 -7 51 18 94 58 34 30 53 34 81 14 16 -13 17 -17 4
-45 -17 -39 -35 -41 -44 -4 l-7 27 -14 -27 c-8 -16 -23 -28 -34 -28 -29 0 -50
-11 -50 -26 0 -9 -11 -14 -29 -14 -17 0 -34 -8 -42 -20 -8 -11 -23 -22 -34
-24 -42 -8 -135 -73 -135 -94 0 -5 -11 -14 -24 -21 -13 -7 -30 -24 -37 -37 -7
-13 -19 -24 -28 -24 -9 0 -27 -7 -41 -15 -14 -8 -37 -19 -52 -26 -16 -6 -28
-15 -28 -20 0 -5 -6 -9 -14 -9 -7 0 -19 -7 -26 -15 -6 -8 -15 -14 -18 -13 -21
2 -31 -4 -37 -22 -3 -11 -17 -23 -30 -26 -13 -3 -31 -16 -39 -29 -9 -13 -33
-32 -53 -41 -21 -10 -42 -24 -46 -32 -5 -7 -22 -25 -38 -40 -19 -16 -29 -34
-27 -47 6 -41 30 -27 154 93 41 40 60 52 74 47 16 -5 20 -2 20 15 0 16 5 21
23 18 27 -4 37 -45 12 -54 -9 -4 -22 -22 -30 -40 -8 -19 -21 -34 -29 -34 -10
0 -15 -8 -13 -22 1 -15 -5 -26 -20 -33 -14 -6 -23 -19 -23 -32 0 -13 -9 -32
-20 -43 -11 -11 -20 -29 -20 -39 0 -11 -4 -23 -10 -26 -5 -3 -10 -45 -10 -92
0 -66 -4 -91 -16 -104 -15 -17 -15 -19 0 -34 15 -15 16 -14 16 13 0 21 6 31
20 35 16 4 20 14 20 49 0 87 10 115 40 122 25 5 29 11 36 53 4 26 13 57 20 68
8 11 14 29 14 41 0 12 10 25 25 32 18 8 25 19 25 40 0 20 8 32 31 46 39 23
109 94 109 110 0 12 83 96 94 96 3 0 15 8 26 18 11 9 29 25 40 35 12 10 36 17
59 17 22 0 44 6 51 15 7 8 25 15 41 15 30 0 80 16 89 29 8 12 70 22 70 11 0
-6 -6 -10 -14 -10 -8 0 -18 -9 -21 -21 -4 -11 -21 -27 -39 -36 -18 -8 -40 -27
-49 -42 -23 -38 -100 -121 -113 -121 -6 0 -24 -18 -38 -39 -15 -22 -34 -42
-42 -45 -8 -3 -14 -12 -14 -21 0 -8 -4 -15 -8 -15 -15 0 -48 -34 -65 -66 -9
-17 -22 -36 -31 -43 -21 -17 -41 -80 -29 -92 6 -6 20 -2 36 11 20 16 27 18 27
7 0 -17 -44 -67 -59 -67 -6 0 -16 -10 -22 -22 -7 -12 -20 -29 -29 -38 -19 -16
-34 -100 -19 -100 5 0 12 7 15 15 8 19 24 20 24 1 0 -13 4 -13 28 0 51 26 56
20 52 -54 -1 -18 -7 -44 -14 -57 -19 -37 -9 -78 25 -97 16 -10 32 -25 35 -35
3 -10 12 -31 20 -46 7 -16 14 -37 14 -47 0 -11 6 -23 14 -27 15 -8 46 -86 46
-115 0 -10 5 -18 10 -18 6 0 10 -9 10 -20 0 -20 9 -24 41 -21 22 2 29 -27 29
-124 0 -55 3 -75 10 -65 6 10 10 11 10 3 0 -7 9 -13 20 -13 23 0 24 -4 9 -31
-6 -12 -8 -41 -3 -72 6 -49 10 -55 70 -102 35 -27 67 -57 70 -67 3 -10 14 -23
25 -29 11 -5 17 -14 14 -18 -2 -5 2 -14 10 -21 8 -7 15 -9 15 -4 0 5 6 2 13
-6 7 -8 21 -20 32 -26 13 -7 30 -41 46 -90 29 -90 72 -164 99 -171 10 -3 21
-15 24 -28 3 -13 9 -30 12 -39 5 -13 -2 -16 -40 -16 -42 0 -46 2 -46 25 0 15
6 25 14 25 8 0 16 7 20 15 4 11 -1 15 -19 15 -14 0 -25 -4 -25 -10 0 -5 -11
-10 -25 -10 -28 0 -35 20 -7 20 16 1 16 1 0 14 -10 7 -18 18 -18 25 0 6 -17
11 -39 11 -22 0 -46 7 -55 15 -8 8 -21 15 -29 15 -7 0 -20 11 -27 25 -7 14
-17 25 -22 25 -4 0 -8 7 -8 15 0 8 -6 15 -14 15 -7 0 -16 9 -19 19 -4 16 -12
18 -53 14 -27 -3 -54 -11 -60 -19 -6 -8 -16 -14 -23 -14 -16 0 -14 -8 9 -32
11 -12 20 -27 20 -32 0 -14 50 -37 63 -29 6 3 7 1 3 -5 -5 -8 1 -12 16 -12 33
0 47 -43 49 -149 2 -72 4 -84 20 -88 23 -6 19 5 28 -83 5 -41 15 -90 22 -108
13 -32 13 -35 -13 -57 -21 -18 -28 -33 -28 -60 0 -33 -2 -35 -35 -35 -29 0
-36 4 -41 27 -7 25 -8 25 -15 6 -4 -12 -20 -23 -37 -26 -24 -5 -31 -12 -34
-33 -4 -35 -31 -53 -55 -38 -14 9 -27 7 -57 -8 -56 -29 -65 -39 -53 -60 6 -9
9 -19 6 -22 -12 -12 -97 -13 -131 -1 -21 7 -90 16 -153 20 -70 4 -115 11 -115
18 0 5 -9 2 -20 -8 -19 -17 -21 -17 -39 -1 -12 11 -40 18 -80 20 l-62 4 26
-44 26 -44 -23 -1 c-13 -1 -59 0 -104 1 l-80 2 -12 -38 c-9 -30 -9 -40 1 -46
7 -5 1 -8 -16 -8 -19 0 -31 -7 -39 -25 -6 -14 -15 -25 -20 -25 -5 0 -16 -7
-25 -16 -14 -14 -14 -16 3 -29 18 -13 18 -14 2 -20 -10 -4 -18 -13 -18 -21 0
-33 -99 -4 -120 36 -13 24 -2 48 34 75 30 22 32 37 11 55 -12 10 -26 9 -67 -1
-79 -20 -115 -9 -100 30 9 24 24 32 54 25 15 -3 35 -1 45 4 16 9 15 11 -7 21
-14 6 -72 15 -130 21 -58 6 -111 11 -117 12 -7 1 -13 7 -13 14 0 7 -16 18 -35
25 -40 15 -44 22 -38 66 4 26 10 33 28 33 13 0 26 7 29 16 14 37 7 43 -64 50
-70 7 -86 16 -52 29 16 6 16 7 0 19 -10 7 -18 18 -18 23 0 14 -46 33 -83 33
-18 1 -43 10 -56 21 -23 19 -23 20 -5 35 10 8 32 22 48 30 39 21 18 35 -48 32
-55 -2 -69 12 -35 35 23 17 18 37 -10 37 -10 0 -24 7 -32 16 -7 8 -25 22 -40
29 -25 13 -26 17 -18 52 10 47 2 80 -22 94 -11 5 -19 19 -19 30 0 11 -5 17
-10 14 -6 -3 -13 1 -16 9 -3 9 -12 16 -19 16 -17 0 -24 20 -18 53 5 26 3 27
-34 27 -28 0 -49 7 -69 25 -16 14 -32 25 -36 25 -13 0 -29 63 -18 74 5 5 10
18 10 27 0 22 50 79 70 79 12 1 11 3 -3 11 -29 17 -81 7 -85 -16 -5 -30 -31
-45 -77 -45 -32 0 -42 5 -50 22 -6 12 -21 25 -35 28 -36 8 -12 19 59 26 56 6
61 9 61 30 0 29 -9 30 -52 4 -27 -15 -43 -18 -83 -12 -57 8 -75 36 -31 48 15
3 26 13 26 23 0 14 2 14 10 1 7 -10 10 -11 10 -2 0 7 -12 17 -28 23 l-27 11
30 11 c38 13 49 29 30 43 -20 15 -107 5 -118 -12 -4 -8 -27 -17 -50 -21 -23
-3 -36 -8 -28 -11 10 -3 8 -9 -9 -22 l-24 -18 27 5 c24 5 27 2 27 -20 0 -14
-4 -37 -10 -51 -6 -17 -6 -26 0 -26 18 0 10 -39 -11 -53 -19 -14 -16 -15 43
-22 74 -9 101 -19 72 -29 -11 -3 -27 -24 -36 -49 -16 -42 -16 -42 -23 -15 -4
16 -14 28 -23 28 -12 0 -13 -3 -4 -12 9 -9 8 -16 -4 -30 -15 -16 -15 -20 -1
-41 13 -20 13 -27 1 -49 -7 -14 -20 -28 -29 -32 -29 -11 -15 -23 38 -32 l52
-9 0 -60 c0 -33 -3 -73 -5 -90 -3 -19 -1 -30 8 -31 6 -1 15 -2 18 -3 3 0 -2
-11 -10 -23 -12 -17 -16 -48 -16 -125 0 -97 -1 -104 -31 -147 -22 -34 -28 -50
-21 -63 5 -10 12 -79 15 -154 6 -113 4 -139 -8 -149 -11 -9 -12 -17 -4 -32 8
-15 8 -27 -2 -45 -12 -22 -11 -30 7 -63 19 -33 19 -38 5 -48 -14 -9 -13 -14
11 -37 26 -24 33 -50 30 -104 0 -8 8 -32 19 -53 10 -20 19 -42 19 -47 0 -5 10
-25 22 -45 l23 -35 2508 -1 c2292 0 2510 1 2532 16 23 15 25 15 25 0 0 -25 28
-19 32 6 2 18 11 24 35 26 19 2 39 12 47 24 10 14 20 18 35 13 20 -6 54 5 52
18 -3 20 0 27 12 27 8 0 20 11 27 25 7 14 20 25 27 25 7 0 16 8 19 18 23 66
29 73 55 68 23 -4 27 -1 33 24 4 23 11 30 28 30 40 1 118 84 118 127 0 20 5
23 35 23 24 0 35 5 35 15 0 8 12 21 27 28 l27 14 -22 12 c-26 14 -28 33 -7 51
14 11 14 15 1 29 -14 15 -13 19 4 34 11 9 20 29 20 45 0 20 8 32 30 45 30 18
42 59 20 72 -6 4 -6 12 2 24 25 41 -24 138 -74 144 -20 2 -23 -3 -26 -33 -5
-77 -13 -101 -30 -98 -13 2 -18 -8 -23 -51 -5 -33 -13 -58 -23 -63 -11 -6 -14
-17 -9 -38 4 -20 2 -30 -7 -30 -7 0 -10 8 -7 20 3 11 1 20 -4 20 -5 0 -9 7 -9
16 0 8 -4 12 -10 9 -5 -3 -10 -13 -10 -21 0 -8 5 -12 10 -9 6 3 10 2 10 -4 0
-13 -29 -41 -43 -41 -18 0 -47 -37 -47 -61 0 -30 44 -22 48 8 4 24 22 32 22
11 0 -27 -29 -93 -41 -97 -8 -2 -25 -15 -39 -29 -21 -21 -26 -22 -28 -8 -2 9
1 22 6 29 5 7 12 24 16 40 8 34 -15 38 -38 6 -8 -12 -25 -27 -38 -33 -14 -7
-23 -20 -23 -36 0 -16 -7 -26 -19 -28 -12 -3 -16 0 -11 7 10 17 -14 41 -40 41
-12 0 -25 3 -29 7 -4 4 -22 9 -39 10 -114 6 -146 20 -148 60 0 15 -2 14 -11
-4 -6 -13 -16 -23 -22 -23 -20 1 -46 27 -57 59 -20 58 -52 29 -48 -44 3 -49 0
-55 -25 -55 -13 0 -35 -9 -50 -21 -15 -12 -26 -16 -26 -8 0 8 -16 10 -54 7
-53 -4 -55 -3 -67 24 -8 19 -15 25 -23 19 -8 -7 -11 4 -12 35 -1 25 -6 50 -12
56 -15 15 -16 55 -2 63 7 4 6 13 -1 27 -11 20 -13 20 -24 5 -14 -19 -45 -23
-45 -6 0 7 -7 17 -15 23 -9 6 -17 22 -18 35 -1 20 -5 22 -36 17 -18 -3 -48 1
-65 8 -33 14 -60 11 -50 -6 4 -6 -2 -6 -14 1 -11 6 -28 11 -37 11 -19 0 -50
28 -41 37 3 4 6 3 6 0 0 -4 9 1 20 10 11 10 20 24 19 33 0 8 -3 10 -5 4 -3 -7
-20 -8 -47 -4 -50 7 -82 24 -96 48 -9 14 -12 15 -20 3 -7 -11 -12 -8 -26 13
-9 14 -15 32 -12 40 3 8 3 17 -1 21 -3 3 -7 16 -7 28 0 16 -7 23 -25 25 -60 7
-79 22 -86 69 -5 35 -16 54 -50 88 -24 23 -44 37 -44 29 0 -21 -20 -17 -21 4
0 12 -3 10 -10 -8 -6 -14 -8 -36 -5 -50 2 -14 2 -45 -1 -68 -5 -34 -8 -40 -19
-31 -8 6 -14 22 -14 35 0 13 -6 27 -14 31 -19 11 -81 131 -89 172 -13 65 48
151 121 171 35 9 57 8 114 -5 76 -17 133 -38 156 -58 15 -12 18 -13 64 -15 15
-1 33 -9 42 -17 8 -8 21 -15 30 -15 24 0 30 20 10 35 -18 13 -18 15 3 52 31
56 101 82 215 83 102 0 122 -6 178 -57 37 -34 100 -145 100 -175 0 -6 7 -20
16 -29 9 -10 16 -31 16 -46 0 -29 33 -103 46 -103 34 1 40 64 12 120 -11 21
-20 55 -20 75 0 39 -22 100 -46 126 -14 15 -14 23 -3 53 10 28 10 38 0 50 -11
13 -9 20 8 42 12 15 21 31 21 37 0 21 138 141 195 169 33 16 67 33 75 38 8 4
40 21 70 36 30 15 61 35 68 45 8 11 25 19 43 19 16 0 29 5 29 10 0 6 6 10 13
10 15 0 67 -91 67 -117 0 -38 78 -51 117 -21 8 6 33 5 69 -2 63 -13 121 -59
116 -91 -4 -25 36 -109 52 -109 18 0 35 22 35 45 0 11 3 42 7 68 5 33 2 56 -7
73 -10 20 -10 29 -1 44 19 31 14 65 -13 90 -20 19 -27 21 -40 10 -13 -11 -15
-8 -15 18 0 24 5 31 25 36 33 8 65 41 65 66 0 11 5 20 10 20 6 0 10 5 10 10 0
6 -6 10 -14 10 -8 0 -13 11 -13 26 0 14 -6 31 -12 37 -8 8 -11 7 -11 -6 0 -10
-8 -17 -20 -17 -26 0 -26 27 0 35 11 4 18 10 16 14 -3 4 4 27 15 51 18 39 21
87 10 138 -1 1 -10 -2 -21 -8 -21 -11 -40 -6 -40 11 0 5 8 9 19 9 21 0 47 51
37 75 -3 8 -17 15 -31 15 -22 0 -25 4 -21 20 3 11 8 29 12 40 3 10 0 29 -6 40
-9 17 -7 26 10 50 15 22 22 49 25 99 4 72 21 127 48 149 9 8 19 35 23 60 9 60
20 82 44 82 15 0 20 10 26 46 11 73 -1 154 -25 171 -16 10 -21 25 -21 56 0 66
-24 83 -45 32 l-8 -20 -5 20 c-2 11 -8 24 -13 29 -5 6 -9 20 -9 32 0 12 -7 24
-15 28 -8 3 -15 17 -15 32 0 15 -12 38 -27 54 -16 16 -43 44 -62 64 -32 34
-34 34 -57 19 -22 -14 -24 -14 -30 1 -3 9 -4 25 -1 36 4 14 -4 22 -33 34 -20
8 -40 21 -43 29 -7 19 -67 28 -67 11 0 -7 -5 -16 -11 -19 -21 -13 -22 6 -3 45
16 33 24 40 44 38 23 -3 25 1 28 40 l3 42 -44 0 c-56 0 -78 21 -42 40 l25 13
-26 24 c-19 18 -25 31 -22 56 2 17 0 32 -3 32 -13 0 -40 37 -36 49 3 7 0 19
-6 25 -9 9 -9 14 2 20 7 5 15 20 16 34 2 13 8 34 14 45 12 23 15 85 4 96 -14
14 -31 86 -21 86 7 0 8 14 5 35 -5 32 -3 37 20 46 19 7 24 14 20 30 -3 11 3
39 14 62 10 23 19 52 19 64 0 12 14 38 30 56 28 33 30 40 30 118 0 64 -4 87
-17 102 -16 16 -18 41 -19 176 0 120 -4 167 -17 204 -9 26 -17 57 -17 68 0 11
-9 37 -19 57 -11 20 -25 49 -32 65 -13 28 -41 62 -109 134 -22 23 -40 48 -40
57 0 8 -9 18 -20 21 -35 11 -21 23 35 30 30 4 59 13 65 20 15 18 97 25 326 28
119 1 197 6 205 13 25 20 59 23 87 8 15 -8 37 -14 50 -14 17 0 22 6 22 28 0
15 -8 37 -18 48 -25 31 -103 54 -165 48 -29 -2 -46 -2 -39 2 15 7 16 30 1 40
-6 3 -29 1 -50 -6 -30 -10 -48 -11 -75 -2 -28 8 -41 8 -58 -2 -11 -8 -35 -16
-53 -19 -26 -5 -33 -3 -38 13 -9 28 -65 24 -65 -4 0 -17 -187 -15 -218 2 -14
8 -71 15 -144 17 -66 2 -123 7 -126 10 -12 12 -50 4 -67 -15z m642 -82 c-3 -7
-5 -2 -5 12 0 14 2 19 5 13 2 -7 2 -19 0 -25z m-979 -284 c-4 -25 -36 -30 -45
-8 -4 11 1 22 12 30 22 16 39 5 33 -22z m255 16 c22 0 27 -4 27 -25 0 -27 0
-27 -42 -29 -15 -1 -35 -9 -45 -17 -25 -22 -53 -13 -53 17 0 13 -1 27 -1 32
-3 12 45 32 66 27 11 -2 32 -5 48 -5z m-370 -39 c-3 -13 2 -23 16 -30 25 -14
28 -51 5 -51 -19 0 -52 17 -78 41 -19 18 -19 19 -1 39 24 27 65 27 58 1z m211
-8 c-7 -24 -27 -35 -49 -27 -25 10 -17 29 18 40 39 12 37 13 31 -13z m666
-1209 c0 -8 -4 -12 -10 -9 -5 3 -10 10 -10 16 0 5 5 9 10 9 6 0 10 -7 10 -16z
m15 -54 c3 -5 4 -14 0 -20 -8 -13 -35 -1 -35 16 0 16 26 19 35 4z m-10 -80 c3
-5 3 -15 -1 -21 -6 -11 -23 6 -24 24 0 10 18 9 25 -3z m-2429 -455 c4 -8 17
-15 30 -15 13 0 24 -4 24 -8 0 -12 -53 -40 -66 -35 -13 5 -27 -24 -18 -39 3
-5 13 0 21 11 8 12 25 21 38 21 18 0 24 -6 27 -27 3 -28 28 -45 28 -19 0 9 5
16 11 16 6 0 8 -17 4 -47 -9 -67 -12 -73 -33 -73 -11 0 -26 -14 -38 -35 -11
-20 -26 -35 -37 -35 -15 0 -16 3 -5 23 7 12 11 25 10 28 -1 4 8 5 18 2 17 -4
20 0 20 24 0 17 -9 38 -19 47 -19 18 -20 17 -35 -19 -9 -21 -16 -41 -16 -46 0
-18 -42 -20 -55 -2 -18 24 -29 12 -58 -63 -25 -63 -42 -73 -42 -23 0 16 -7 34
-15 40 -13 8 -13 11 3 23 17 13 17 14 0 20 -11 4 -22 1 -29 -8 -18 -25 -35
-19 -28 9 5 21 3 25 -15 25 -14 0 -21 6 -21 20 0 15 7 20 25 20 15 0 25 -6 25
-14 0 -19 17 -29 32 -20 8 5 6 11 -6 20 -23 17 -17 56 11 70 13 6 32 19 43 29
12 11 27 15 43 11 21 -5 25 -1 30 22 9 42 81 79 93 47z m152 -22 c2 -8 -6 -13
-22 -13 -25 0 -33 10 -19 24 10 10 36 3 41 -11z m-513 -3 c-3 -5 -11 -10 -16
-10 -6 0 -7 5 -4 10 3 6 11 10 16 10 6 0 7 -4 4 -10z m45 -91 c0 -14 -17 -10
-23 5 -4 10 -1 13 9 9 7 -3 14 -9 14 -14z m-155 -169 c18 -7 17 -9 -12 -20
-17 -6 -34 -18 -37 -26 -6 -15 -66 -20 -66 -5 0 5 13 12 29 16 17 3 31 14 34
26 5 20 20 23 52 9z m-130 -70 c8 -13 -20 -24 -41 -16 -20 8 -9 26 16 26 10 0
22 -5 25 -10z m406 -31 c9 -17 7 -21 -10 -26 -12 -3 -29 -21 -37 -40 -15 -29
-21 -34 -48 -31 -27 3 -33 -2 -49 -34 -15 -29 -26 -39 -52 -44 -23 -4 -41 -17
-57 -40 -13 -19 -28 -34 -35 -34 -6 0 -18 -8 -25 -18 -7 -10 -32 -29 -55 -42
-23 -13 -41 -28 -40 -34 1 -6 -6 -11 -15 -11 -10 0 -24 -9 -32 -20 -15 -19
-15 -19 -16 8 0 26 34 70 61 79 6 2 11 14 12 27 1 16 10 27 29 33 16 6 28 16
28 24 0 8 9 19 20 26 11 7 20 18 20 24 0 15 65 54 90 54 22 0 35 30 18 42 -9
5 -4 8 13 8 15 0 33 8 40 17 8 9 31 29 53 44 42 31 65 28 87 -12z m289 -6 c0
-36 -2 -38 -34 -40 -35 -3 -35 -3 -24 28 8 25 28 41 56 48 1 1 2 -16 2 -36z
m-142 -6 c2 -15 10 -27 18 -27 8 0 14 -7 14 -15 0 -8 -9 -15 -19 -15 -11 0
-22 -6 -24 -12 -4 -10 -8 -10 -15 1 -6 8 -12 9 -16 3 -3 -6 2 -13 13 -17 11
-3 26 -17 35 -30 17 -26 46 -34 46 -13 0 6 2 9 5 6 9 -9 -5 -36 -22 -42 -9 -4
-21 0 -27 9 -6 8 -24 14 -41 14 -119 -2 -127 -3 -113 -13 18 -15 11 -44 -13
-51 -10 -4 -19 -13 -19 -21 0 -8 -7 -14 -15 -14 -9 0 -15 -9 -15 -24 0 -14 -8
-31 -18 -38 -9 -7 -23 -25 -29 -40 -13 -29 -27 -35 -38 -18 -11 17 -22 11 -27
-15 -3 -14 -1 -25 3 -25 16 0 9 -25 -11 -43 -23 -19 -40 -23 -22 -5 7 7 12 20
12 29 0 23 -38 13 -67 -18 -13 -13 -23 -25 -23 -26 0 -2 12 -3 27 -2 31 0 42
-21 16 -29 -10 -3 -23 -16 -28 -28 -6 -12 -15 -23 -21 -25 -12 -4 -64 41 -64
57 0 16 -18 12 -29 -7 -7 -14 -13 -15 -33 -6 -12 7 -17 12 -10 12 7 1 11 5 8
10 -3 5 8 26 24 46 17 21 30 44 30 51 0 8 6 14 13 14 7 0 20 9 30 20 10 12 21
19 25 16 5 -3 16 6 26 20 11 13 27 24 37 24 11 0 19 7 19 15 0 8 7 15 15 15 8
0 15 -9 15 -20 0 -17 3 -19 19 -10 13 6 22 7 26 0 7 -11 55 28 55 45 0 17 29
74 43 82 7 5 24 31 39 58 14 28 35 55 46 60 11 6 32 25 47 43 31 38 49 37 53
-1z m2998 -29 c19 -18 24 -33 24 -75 0 -33 -5 -57 -15 -67 -9 -8 -14 -21 -13
-28 2 -7 -4 -13 -12 -13 -25 0 -25 83 0 117 l20 27 -24 16 c-15 10 -22 22 -19
31 7 19 11 18 39 -8z m-3911 -198 c-3 -5 -13 -10 -21 -10 -8 0 -14 5 -14 10 0
6 9 10 21 10 11 0 17 -4 14 -10z m630 0 c-3 -5 -16 -10 -28 -9 -20 1 -20 2 3
9 14 4 26 8 28 9 2 1 0 -3 -3 -9z m295 -4 c0 -2 -9 -6 -20 -9 -11 -3 -20 -1
-20 4 0 5 9 9 20 9 11 0 20 -2 20 -4z m-50 -46 c0 -11 -4 -20 -9 -20 -14 0
-23 18 -16 30 10 17 25 11 25 -10z m-26 -32 c10 -10 10 -17 -2 -41 -8 -16 -22
-32 -31 -35 -9 -4 -16 -17 -17 -29 -3 -96 -1 -93 -39 -93 -25 0 -35 -4 -35
-16 0 -12 -7 -14 -30 -9 -24 5 -30 3 -30 -10 0 -24 -25 -46 -38 -33 -6 6 -8
17 -4 26 4 11 1 14 -11 9 -11 -4 -17 -1 -17 8 0 8 7 15 15 15 8 0 23 18 32 39
9 22 27 44 39 50 12 5 28 23 35 40 16 37 31 44 64 31 22 -8 25 -7 25 13 0 13
5 28 12 35 15 15 16 15 32 0z m156 -68 c0 -5 -5 -10 -11 -10 -5 0 -7 5 -4 10
3 6 8 10 11 10 2 0 4 -4 4 -10z m-50 -51 c0 -5 5 -7 10 -4 6 4 10 -7 10 -24 0
-21 -8 -39 -25 -53 -25 -22 -33 -48 -15 -48 6 0 10 -9 10 -20 0 -16 -7 -20
-30 -20 -23 0 -30 -4 -30 -20 0 -13 -7 -20 -19 -20 -13 0 -21 11 -29 40 -9 37
-8 44 14 67 13 14 24 35 24 46 0 12 10 31 22 44 22 24 58 31 58 12z m-720 -4
c0 -3 -9 -14 -20 -25 -11 -11 -22 -20 -25 -20 -7 0 -6 36 2 43 7 8 43 9 43 2z
m90 -85 c0 -12 -28 -25 -36 -17 -9 9 6 27 22 27 8 0 14 -5 14 -10z m756 -37
c-10 -10 -19 5 -10 18 6 11 8 11 12 0 2 -7 1 -15 -2 -18z m-555 -985 c21 -26
25 -58 7 -58 -18 1 -48 25 -48 39 0 6 -4 11 -9 11 -5 0 -11 7 -15 15 -9 25 43
18 65 -7z m-2425 -203 c-10 -8 -23 -12 -29 -8 -11 7 12 23 33 23 12 -1 11 -4
-4 -15z m334 -270 c0 -9 7 -18 16 -22 14 -5 13 -9 -7 -24 -50 -39 -101 -14
-84 41 8 25 75 30 75 5z m2480 -142 c-1 -5 -9 -18 -19 -30 -23 -27 -91 -33
-91 -8 0 11 11 15 39 15 25 0 41 5 45 15 5 15 26 21 26 8z m115 -73 c3 -5 1
-10 -4 -10 -6 0 -11 5 -11 10 0 6 2 10 4 10 3 0 8 -4 11 -10z m-378 -312 c-2
-13 -4 -3 -4 22 0 25 2 35 4 23 2 -13 2 -33 0 -45z m70 0 c-2 -13 -4 -3 -4 22
0 25 2 35 4 23 2 -13 2 -33 0 -45z m1831 -61 c6 -7 13 -25 16 -41 3 -16 12
-36 21 -46 24 -26 18 -33 -22 -25 -54 10 -64 22 -59 66 6 58 22 73 44 46z
m-3093 -403 c-24 -18 -52 1 -34 22 8 10 16 11 32 2 20 -10 20 -11 2 -24z
m2455 -69 c10 -12 10 -18 0 -30 -7 -8 -16 -15 -20 -15 -4 0 -10 7 -14 15 -6
17 2 45 14 45 4 0 13 -7 20 -15z m100 -85 c0 -11 -4 -20 -9 -20 -5 0 -7 9 -4
20 3 11 7 20 9 20 2 0 4 -9 4 -20z m-75 -10 c3 -5 1 -10 -4 -10 -6 0 -11 5
-11 10 0 6 2 10 4 10 3 0 8 -4 11 -10z"/>
<path d="M3770 3595 c0 -9 5 -15 11 -13 6 2 11 8 11 13 0 5 -5 11 -11 13 -6 2
-11 -4 -11 -13z"/>
<path d="M3377 3013 c-13 -12 -7 -33 8 -33 8 0 15 9 15 20 0 20 -11 26 -23 13z"/>
<path d="M3695 3020 c3 -5 8 -10 11 -10 2 0 4 5 4 10 0 6 -5 10 -11 10 -5 0
-7 -4 -4 -10z"/>
<path d="M1280 5872 c0 -15 -4 -32 -9 -37 -5 -6 -11 -21 -13 -35 -3 -24 -6
-25 -65 -22 -69 2 -80 -9 -35 -35 15 -9 37 -34 47 -56 11 -22 32 -53 47 -68
18 -18 29 -42 33 -70 6 -39 5 -42 -8 -26 -16 19 -47 14 -47 -8 0 -27 13 -45
31 -45 10 0 19 -7 19 -15 0 -8 4 -15 8 -15 4 0 16 -14 26 -31 l18 -31 -23 7
c-13 4 -29 10 -35 12 -6 2 -16 -2 -22 -10 -17 -20 9 -79 44 -102 15 -10 37
-28 48 -41 20 -22 23 -22 56 -8 22 9 43 28 55 49 10 20 32 44 49 55 39 24 59
56 51 80 -3 11 4 38 16 61 21 42 21 44 4 90 -9 26 -15 58 -13 71 3 25 -25 63
-63 82 -13 6 -28 25 -33 41 -14 50 -21 59 -57 77 -19 10 -45 26 -57 38 -13 11
-35 20 -48 20 -20 0 -24 -5 -24 -28z m55 -368 c-10 -7 -22 -11 -27 -8 -5 3 -1
12 9 19 10 7 22 11 27 8 5 -4 1 -12 -9 -19z"/>
<path d="M1997 5836 c-3 -8 -2 -18 3 -21 13 -8 24 15 12 27 -6 6 -11 4 -15 -6z"/>
<path d="M2198 5843 c-20 -5 -22 -12 -9 -32 12 -19 76 -2 76 19 0 15 -35 22
-67 13z"/>
<path d="M2450 5810 c0 -5 -11 -12 -25 -16 -14 -3 -25 -10 -25 -14 0 -12 -38
0 -51 16 -17 20 -34 17 -68 -12 -17 -14 -38 -24 -46 -20 -8 3 -17 1 -20 -3 -2
-5 4 -11 15 -14 18 -4 19 -11 13 -54 -6 -48 -6 -48 14 -30 17 15 31 17 88 11
41 -4 69 -12 72 -20 4 -11 7 -11 19 1 8 7 14 18 14 22 0 5 13 22 30 38 16 16
28 31 25 33 -2 3 0 12 5 22 6 12 3 21 -11 33 -21 19 -49 23 -49 7z"/>
<path d="M9333 5730 c-36 -15 -19 -43 21 -34 45 9 51 15 31 31 -21 15 -22 15
-52 3z"/>
<path d="M2202 5650 c0 -14 2 -19 5 -12 2 6 2 18 0 25 -3 6 -5 1 -5 -13z"/>
<path d="M8800 5630 c0 -5 5 -10 10 -10 6 0 10 5 10 10 0 6 -4 10 -10 10 -5 0
-10 -4 -10 -10z"/>
<path d="M3694 5611 c-3 -3 -12 -20 -19 -38 l-14 -32 -32 16 c-36 18 -158 22
-244 8 -28 -5 -71 -7 -97 -6 -39 2 -51 -2 -70 -21 -13 -13 -35 -31 -50 -41
-16 -10 -28 -25 -28 -34 0 -14 -13 -15 -101 -11 -92 5 -102 3 -106 -13 -3 -10
-17 -22 -31 -27 -31 -10 -102 6 -118 27 -10 13 -21 13 -70 3 -33 -7 -66 -13
-74 -14 -8 0 -24 -7 -35 -14 -11 -8 -30 -14 -44 -14 -13 0 -49 -12 -79 -26
-54 -26 -97 -32 -143 -20 -13 3 -18 3 -11 0 6 -3 9 -10 6 -15 -7 -12 -34 8
-34 26 0 6 9 20 19 29 16 14 19 29 17 71 -3 46 0 57 20 76 13 12 24 28 24 35
0 7 6 15 13 17 6 3 2 6 -11 6 -42 2 -81 -26 -87 -63 -5 -22 -15 -37 -30 -44
-21 -10 -23 -17 -22 -75 1 -36 -1 -63 -4 -61 -4 2 -9 -19 -13 -46 -5 -37 -11
-50 -27 -55 -22 -7 -55 -52 -46 -62 4 -3 -1 -12 -11 -19 -16 -12 -16 -14 0
-41 22 -37 8 -68 -42 -94 -47 -25 -74 -24 -106 6 -34 32 -49 20 -36 -28 10
-35 9 -36 -23 -47 -19 -6 -35 -19 -38 -31 -3 -12 -11 -19 -18 -17 -22 7 -21
26 1 33 33 10 20 39 -23 49 -31 8 -42 6 -65 -11 -27 -20 -43 -73 -23 -73 6 0
11 -9 11 -20 0 -11 -7 -20 -15 -20 -7 0 -18 -6 -22 -13 -4 -8 -20 -22 -35 -32
-42 -26 -37 -53 12 -61 49 -8 51 -24 5 -48 -39 -21 -38 -30 3 -31 38 0 41 -30
5 -49 l-28 -15 46 -1 c25 0 50 5 56 11 7 7 13 7 17 1 4 -7 18 -7 43 0 35 10
178 6 302 -8 62 -7 102 -32 133 -82 13 -21 31 -35 49 -39 16 -3 29 -10 29 -15
0 -5 5 -6 10 -3 6 3 10 -1 10 -9 0 -18 45 -22 55 -6 9 15 25 12 25 -5 0 -23
18 -18 26 7 8 25 28 48 43 48 5 0 13 9 16 20 3 11 11 20 17 20 6 0 5 6 -3 16
-10 13 -10 17 2 25 8 5 24 9 37 9 15 0 26 9 32 25 5 14 16 25 24 25 25 0 34
29 23 73 -6 24 -17 42 -28 44 -11 3 -16 9 -13 14 3 5 0 9 -5 9 -6 0 -11 -4
-11 -10 0 -5 -7 -10 -17 -10 -9 0 -13 3 -10 6 14 14 -17 46 -69 71 -30 14 -57
29 -60 34 -3 5 -13 9 -22 9 -39 1 -46 15 -32 64 10 36 17 46 34 47 11 0 16 3
9 5 -8 4 -4 16 10 39 32 49 81 58 145 27 48 -24 75 -22 87 6 5 12 17 22 27 22
9 0 20 5 23 10 3 6 15 10 27 10 11 0 46 16 78 35 32 19 64 35 72 35 8 0 30 8
49 18 45 23 231 28 249 7 8 -10 18 -11 36 -4 45 17 98 11 112 -12 12 -18 19
-20 59 -14 38 6 49 3 68 -15 18 -17 31 -21 50 -16 18 5 27 2 31 -9 3 -8 25
-20 48 -27 42 -12 70 -28 48 -28 -24 0 -13 -39 13 -46 30 -7 32 -30 8 -72 -15
-25 -16 -36 -6 -64 6 -18 9 -57 8 -86 l-4 -52 35 3 c29 3 43 14 80 61 32 41
47 69 50 99 3 23 9 44 15 45 5 2 9 8 9 14 0 12 25 38 37 38 10 0 63 66 63 79
0 5 -7 14 -16 19 -13 7 -16 34 -18 160 -1 83 -4 153 -6 155 -3 3 -19 12 -37
21 -44 22 -85 67 -80 87 3 10 -4 21 -17 27 -25 12 -123 22 -132 13z m246 -201
c-6 -11 -15 -20 -20 -20 -6 0 -10 9 -10 20 0 13 7 20 20 20 18 0 19 -3 10 -20z
m-3 -200 c1 -11 -4 -20 -13 -20 -14 0 -19 21 -7 33 11 12 19 7 20 -13z m-1937
-190 c0 -5 -2 -10 -4 -10 -3 0 -8 5 -11 10 -3 6 -1 10 4 10 6 0 11 -4 11 -10z
m-148 -123 c-24 -11 -38 -5 -28 11 3 6 16 8 28 4 l22 -5 -22 -10z"/>
<path d="M3431 5016 c-9 -10 -8 -15 4 -20 10 -4 15 1 15 14 0 24 -4 25 -19 6z"/>
<path d="M1635 4980 c-12 -19 6 -50 28 -50 34 0 46 12 36 38 -9 23 -52 31 -64
12z"/>
<path d="M9357 4874 c-11 -12 13 -43 28 -38 20 8 19 30 -1 38 -19 7 -19 7 -27
0z"/>
<path d="M2705 4820 c-3 -5 -1 -10 4 -10 6 0 11 5 11 10 0 6 -2 10 -4 10 -3 0
-8 -4 -11 -10z"/>
<path d="M9370 4801 c-7 -14 -5 -23 9 -35 25 -23 31 -20 31 13 0 34 -25 48
-40 22z"/>
<path d="M9575 4780 c3 -5 8 -10 11 -10 2 0 4 5 4 10 0 6 -5 10 -11 10 -5 0
-7 -4 -4 -10z"/>
<path d="M8986 4761 c-18 -7 -18 -8 -2 -14 10 -4 26 -7 37 -7 12 0 19 -7 19
-19 0 -23 17 -31 53 -24 53 10 24 34 -83 70 -3 1 -14 -2 -24 -6z"/>
<path d="M9120 4750 c0 -12 37 -12 65 0 15 7 10 9 -22 9 -24 1 -43 -3 -43 -9z"/>
<path d="M1665 4670 c3 -5 8 -10 11 -10 2 0 4 5 4 10 0 6 -5 10 -11 10 -5 0
-7 -4 -4 -10z"/>
<path d="M9220 4350 c-12 -8 -12 -10 3 -16 22 -8 50 3 42 16 -8 12 -25 13 -45
0z"/>
<path d="M9417 4354 c-9 -10 2 -24 19 -24 8 0 14 7 14 15 0 15 -21 21 -33 9z"/>
<path d="M9542 4351 c-11 -7 -10 -10 3 -15 28 -10 45 -7 45 9 0 16 -27 20 -48
6z"/>
<path d="M1140 4214 c0 -8 5 -12 10 -9 6 3 10 10 10 16 0 5 -4 9 -10 9 -5 0
-10 -7 -10 -16z"/>
<path d="M6344 4165 c-19 -14 -18 -14 4 -15 13 0 22 6 22 15 0 19 -1 19 -26 0z"/>
<path d="M1036 4094 c-9 -23 -9 -23 24 -11 20 7 25 14 17 19 -19 12 -34 9 -41
-8z"/>
<path d="M1175 4059 c-4 -5 -3 -13 0 -19 8 -12 65 -13 65 -1 0 13 -58 32 -65
20z"/>
<path d="M1133 3970 c2 -25 23 -33 47 -17 31 19 24 37 -14 37 -28 0 -34 -4
-33 -20z"/>
<path d="M1040 3831 c0 -23 -28 -28 -60 -11 -15 8 -18 7 -15 -3 8 -20 66 -39
82 -26 15 13 17 45 3 54 -5 3 -10 -3 -10 -14z"/>
<path d="M9556 3740 c-21 -21 -14 -40 15 -40 14 0 19 7 19 30 0 34 -7 37 -34
10z"/>
<path d="M3335 3720 c-8 -12 20 -24 35 -15 5 3 10 10 10 16 0 12 -37 12 -45
-1z"/>
<path d="M3265 3681 c-3 -5 -1 -12 4 -15 12 -8 41 3 41 15 0 12 -37 12 -45 0z"/>
<path d="M6655 3679 c-10 -15 3 -25 16 -12 7 7 7 13 1 17 -6 3 -14 1 -17 -5z"/>
<path d="M9420 3646 c0 -8 7 -16 15 -20 10 -4 15 1 15 14 0 11 -7 20 -15 20
-8 0 -15 -6 -15 -14z"/>
<path d="M3128 3603 c7 -3 16 -2 19 1 4 3 -2 6 -13 5 -11 0 -14 -3 -6 -6z"/>
<path d="M9541 3540 c-7 -3 -9 -13 -6 -22 7 -18 55 -12 55 7 0 15 -33 25 -49
15z"/>
<path d="M6790 3501 c0 -6 5 -13 10 -16 6 -3 10 1 10 9 0 9 -4 16 -10 16 -5 0
-10 -4 -10 -9z"/>
<path d="M9581 3424 c0 -11 3 -14 6 -6 3 7 2 16 -1 19 -3 4 -6 -2 -5 -13z"/>
<path d="M2800 3368 c-30 -33 -9 -44 34 -16 20 12 36 26 36 31 0 16 -51 6 -70
-15z"/>
<path d="M2735 3300 c-10 -11 -23 -20 -29 -20 -16 0 -35 -46 -26 -61 11 -18
40 -3 40 21 0 13 7 20 19 20 16 0 30 24 31 53 0 13 -17 7 -35 -13z"/>
<path d="M3200 3240 c0 -5 7 -10 15 -10 8 0 15 5 15 10 0 6 -7 10 -15 10 -8 0
-15 -4 -15 -10z"/>
<path d="M2655 3190 c3 -5 8 -10 11 -10 2 0 4 5 4 10 0 6 -5 10 -11 10 -5 0
-7 -4 -4 -10z"/>
<path d="M2601 3171 c-12 -21 -5 -31 21 -31 13 0 18 7 18 25 0 30 -25 34 -39
6z"/>
<path d="M6937 3169 c-7 -25 2 -51 14 -43 12 7 12 51 0 58 -5 3 -11 -4 -14
-15z"/>
<path d="M2860 3021 c0 -13 26 -32 33 -24 8 7 -11 33 -24 33 -5 0 -9 -4 -9 -9z"/>
<path d="M2630 2834 c0 -8 5 -12 10 -9 6 4 8 11 5 16 -9 14 -15 11 -15 -7z"/>
<path d="M2936 2832 c-3 -3 -6 -14 -6 -24 0 -13 7 -18 25 -18 18 0 25 5 25 19
0 18 -33 35 -44 23z"/>
<path d="M2800 2607 c0 -18 -10 -29 -40 -43 -22 -10 -40 -25 -40 -31 0 -17 11
-16 38 3 13 9 31 13 42 9 18 -6 20 -2 20 39 0 25 -4 46 -10 46 -5 0 -10 -11
-10 -23z"/>
<path d="M740 2451 c0 -11 79 -26 88 -16 11 10 -21 25 -55 25 -18 0 -33 -4
-33 -9z"/>
<path d="M2582 2430 c-18 -4 -42 -5 -53 -3 -14 4 -19 0 -19 -15 0 -12 -4 -24
-10 -27 -15 -9 -12 -51 5 -65 12 -10 22 -6 57 19 23 17 51 31 62 31 21 1 21 1
1 16 -19 14 -19 16 -2 28 34 26 21 31 -41 16z"/>
<path d="M810 2400 c-11 -6 -12 -12 -4 -20 13 -13 44 -2 44 16 0 16 -18 18
-40 4z"/>
<path d="M978 2303 c12 -2 30 -2 40 0 9 3 -1 5 -23 4 -22 0 -30 -2 -17 -4z"/>
<path d="M6793 2173 c-18 -7 -16 -23 2 -23 8 0 15 7 15 15 0 8 -1 15 -2 14 -2
0 -9 -3 -15 -6z"/>
<path d="M800 2160 c0 -5 10 -10 23 -10 18 0 19 2 7 10 -19 13 -30 13 -30 0z"/>
<path d="M880 2124 c0 -8 11 -14 25 -14 14 0 25 4 25 9 0 5 -11 11 -25 13 -17
4 -25 1 -25 -8z"/>
<path d="M450 2120 c0 -5 9 -10 20 -10 11 0 20 5 20 10 0 6 -9 10 -20 10 -11
0 -20 -4 -20 -10z"/>
<path d="M960 2120 c0 -5 7 -10 16 -10 8 0 12 5 9 10 -3 6 -10 10 -16 10 -5 0
-9 -4 -9 -10z"/>
<path d="M813 2093 c-7 -2 -13 -13 -13 -24 0 -10 -11 -26 -26 -35 -14 -9 -21
-21 -17 -25 13 -13 66 -19 79 -9 7 7 15 6 23 -4 14 -16 51 -10 51 9 0 7 7 15
15 19 18 6 20 37 4 53 -9 9 -17 9 -31 0 -16 -10 -21 -9 -29 6 -10 17 -31 21
-56 10z"/>
<path d="M855 1956 c-69 -13 -82 -34 -34 -55 22 -10 34 -10 42 -2 6 6 27 11
47 11 40 0 60 14 60 42 0 21 -23 22 -115 4z"/>
<path d="M170 1895 c0 -8 5 -15 10 -15 6 0 10 7 10 15 0 8 -4 15 -10 15 -5 0
-10 -7 -10 -15z"/>
<path d="M725 1900 c-3 -5 1 -10 10 -10 9 0 13 5 10 10 -3 6 -8 10 -10 10 -2
0 -7 -4 -10 -10z"/>
<path d="M6126 1653 c-17 -107 4 -233 44 -258 6 -4 15 -18 20 -31 14 -35 56
-52 76 -32 14 14 14 21 4 54 -7 22 -16 41 -21 44 -13 9 -14 179 -1 192 19 19
14 34 -14 47 -20 9 -30 9 -40 0 -10 -8 -17 -7 -29 5 -24 24 -32 20 -39 -21z"/>
<path d="M6677 1624 c-10 -10 -9 -42 1 -48 14 -9 50 5 57 21 3 9 4 17 3 19 -8
8 -55 14 -61 8z"/>
<path d="M220 1566 c0 -9 30 -14 35 -6 4 6 -3 10 -14 10 -12 0 -21 -2 -21 -4z"/>
<path d="M3310 1550 c0 -5 5 -10 10 -10 6 0 10 5 10 10 0 6 -4 10 -10 10 -5 0
-10 -4 -10 -10z"/>
<path d="M6670 1530 c0 -5 5 -10 10 -10 6 0 10 5 10 10 0 6 -4 10 -10 10 -5 0
-10 -4 -10 -10z"/>
<path d="M6642 1477 c-15 -16 -18 -27 -12 -37 6 -8 10 -28 10 -45 0 -16 0 -64
0 -105 0 -79 10 -114 26 -89 7 12 11 64 13 166 0 21 7 37 21 45 29 19 26 62
-5 76 -32 15 -28 16 -53 -11z"/>
<path d="M3190 1440 c0 -5 5 -10 10 -10 6 0 10 5 10 10 0 6 -4 10 -10 10 -5 0
-10 -4 -10 -10z"/>
<path d="M182 1370 c0 -14 2 -19 5 -12 2 6 2 18 0 25 -3 6 -5 1 -5 -13z"/>
<path d="M8192 1360 c-11 -17 -10 -21 5 -27 10 -4 22 -12 26 -20 10 -17 27
-17 27 0 0 21 -24 67 -35 67 -6 0 -16 -9 -23 -20z"/>
<path d="M526 1291 c-10 -11 -26 -17 -39 -15 -21 4 -21 4 -2 -5 31 -15 65 -13
72 5 10 26 -11 37 -31 15z"/>
<path d="M8500 1248 c0 -19 2 -20 10 -8 13 19 13 30 0 30 -5 0 -10 -10 -10
-22z"/>
<path d="M8020 1230 c0 -5 5 -10 10 -10 6 0 10 5 10 10 0 6 -4 10 -10 10 -5 0
-10 -4 -10 -10z"/>
<path d="M1463 1195 c-8 -24 3 -29 27 -12 18 13 19 15 5 21 -23 8 -25 8 -32
-9z"/>
<path d="M8160 1200 c0 -5 5 -10 10 -10 6 0 10 5 10 10 0 6 -4 10 -10 10 -5 0
-10 -4 -10 -10z"/>
<path d="M138 1193 c7 -3 16 -2 19 1 4 3 -2 6 -13 5 -11 0 -14 -3 -6 -6z"/>
<path d="M8717 1085 c-8 -18 11 -31 25 -17 11 11 3 32 -12 32 -4 0 -10 -7 -13
-15z"/>
<path d="M463 1044 c-10 -27 11 -33 30 -8 17 23 17 24 -3 24 -11 0 -23 -7 -27
-16z"/>
<path d="M535 1050 c3 -5 10 -10 16 -10 5 0 9 5 9 10 0 6 -7 10 -16 10 -8 0
-12 -4 -9 -10z"/>
<path d="M3347 1045 c-5 -11 0 -15 19 -15 16 0 24 5 22 13 -7 18 -35 20 -41 2z"/>
<path d="M270 1004 c0 -10 7 -14 22 -12 32 5 35 28 4 28 -17 0 -26 -5 -26 -16z"/>
<path d="M570 971 c0 -12 6 -21 16 -21 9 0 14 7 12 17 -5 25 -28 28 -28 4z"/>
<path d="M280 940 c0 -5 7 -10 15 -10 8 0 15 5 15 10 0 6 -7 10 -15 10 -8 0
-15 -4 -15 -10z"/>
<path d="M460 935 c0 -8 7 -15 15 -15 9 0 12 6 9 15 -4 8 -10 15 -15 15 -5 0
-9 -7 -9 -15z"/>
<path d="M130 900 c0 -5 5 -10 10 -10 6 0 10 5 10 10 0 6 -4 10 -10 10 -5 0
-10 -4 -10 -10z"/>
<path d="M6532 890 c0 -14 2 -19 5 -12 2 6 2 18 0 25 -3 6 -5 1 -5 -13z"/>
<path d="M7693 862 c-23 -25 -40 -49 -37 -54 3 -5 -1 -17 -9 -26 -13 -15 -18
-32 -29 -96 -2 -16 5 -22 35 -29 79 -19 114 34 98 147 -4 33 -6 67 -4 77 9 33
-12 25 -54 -19z"/>
<path d="M530 862 c0 -14 11 -21 26 -15 21 8 17 23 -6 23 -11 0 -20 -4 -20 -8z"/>
<path d="M617 863 c-7 -12 11 -53 24 -53 6 0 8 7 5 16 -3 9 -6 22 -6 30 0 15
-16 19 -23 7z"/>
<path d="M7950 850 c0 -11 0 -23 -1 -27 0 -4 4 -9 10 -11 6 -2 11 10 11 27 0
17 -4 31 -10 31 -5 0 -10 -9 -10 -20z"/>
<path d="M130 820 c0 -5 7 -10 16 -10 8 0 12 5 9 10 -3 6 -10 10 -16 10 -5 0
-9 -4 -9 -10z"/>
<path d="M310 820 c0 -5 5 -10 10 -10 6 0 10 5 10 10 0 6 -4 10 -10 10 -5 0
-10 -4 -10 -10z"/>
<path d="M7495 810 c3 -5 15 -10 26 -10 11 0 17 5 14 10 -3 6 -15 10 -26 10
-11 0 -17 -4 -14 -10z"/>
<path d="M6507 790 c-3 -11 -1 -23 4 -26 5 -3 9 6 9 20 0 31 -6 34 -13 6z"/>
<path d="M7565 780 c4 -6 11 -8 16 -5 14 9 11 15 -7 15 -8 0 -12 -5 -9 -10z"/>
<path d="M7460 760 c-9 -16 -8 -22 5 -26 8 -3 22 -4 30 0 13 5 13 9 3 26 -16
25 -24 25 -38 0z"/>
<path d="M6415 680 c3 -5 8 -10 11 -10 2 0 4 5 4 10 0 6 -5 10 -11 10 -5 0 -7
-4 -4 -10z"/>
<path d="M6333 643 c-14 -5 -18 -33 -5 -33 10 1 42 26 42 34 0 7 -19 7 -37 -1z"/>
<path d="M2480 620 c0 -5 -7 -10 -15 -10 -22 0 -18 -17 5 -23 13 -3 24 1 30
13 13 25 13 30 -5 30 -8 0 -15 -4 -15 -10z"/>
<path d="M8563 581 c-27 -35 -28 -41 -9 -41 20 0 38 26 34 50 -3 21 -4 20 -25
-9z"/>
<path d="M277 584 c-16 -16 -6 -34 19 -34 19 0 25 5 22 17 -3 19 -29 29 -41
17z"/>
<path d="M7425 510 c-3 -5 -1 -10 4 -10 6 0 11 5 11 10 0 6 -2 10 -4 10 -3 0
-8 -4 -11 -10z"/>
<path d="M730 494 c0 -8 5 -12 10 -9 6 4 8 11 5 16 -9 14 -15 11 -15 -7z"/>
<path d="M7416 473 c-6 -14 -5 -15 5 -6 7 7 10 15 7 18 -3 3 -9 -2 -12 -12z"/>
<path d="M7083 443 c-9 -28 -45 -53 -75 -53 -16 0 -28 -4 -28 -10 0 -5 -7 -10
-15 -10 -32 0 -50 -92 -20 -104 8 -3 15 -2 15 3 0 5 29 11 65 13 75 6 94 21
106 81 15 78 12 97 -16 97 -15 0 -28 -7 -32 -17z"/>
<path d="M6820 354 c-11 -3 -16 -19 -18 -53 -2 -56 14 -79 45 -62 10 6 30 15
46 21 35 12 34 24 -4 43 -20 9 -27 17 -20 22 9 5 9 10 0 21 -11 14 -20 15 -49
8z"/>
<path d="M345 340 c-4 -6 7 -10 27 -10 25 0 29 3 18 10 -19 13 -37 13 -45 0z"/>
<path d="M570 340 c0 -5 6 -10 14 -10 8 0 18 5 21 10 3 6 -3 10 -14 10 -12 0
-21 -4 -21 -10z"/>
<path d="M720 304 c0 -17 22 -14 28 4 2 7 -3 12 -12 12 -9 0 -16 -7 -16 -16z"/>
<path d="M354 245 c-7 -17 4 -37 17 -30 12 8 12 45 -1 45 -6 0 -13 -7 -16 -15z"/>
<path d="M6662 204 c-37 -59 -10 -113 41 -80 26 17 27 47 5 94 -15 29 -19 28
-46 -14z"/>
<path d="M246 213 c-9 -10 -7 -73 2 -73 9 0 32 44 32 59 0 11 -26 21 -34 14z"/>
<path d="M7500 190 c0 -13 5 -18 15 -14 8 4 15 12 15 20 0 8 -7 14 -15 14 -8
0 -15 -9 -15 -20z"/>
<path d="M127 134 c-12 -12 4 -24 34 -24 34 0 39 15 7 24 -29 7 -33 7 -41 0z"/>
<path d="M6494 133 c-11 -2 -38 -22 -59 -43 -31 -31 -42 -37 -56 -29 -14 7
-21 5 -29 -10 -23 -44 -15 -51 64 -51 69 0 75 2 91 27 19 29 33 114 19 112 -5
-1 -18 -4 -30 -6z"/>
<path d="M8246 60 c-45 -57 -46 -60 -23 -60 14 0 41 16 66 39 37 34 41 42 31
60 -6 12 -14 21 -19 21 -4 0 -29 -27 -55 -60z"/>
<path d="M6580 85 c0 -8 5 -15 10 -15 6 0 10 7 10 15 0 8 -4 15 -10 15 -5 0
-10 -7 -10 -15z"/>
<path d="M6830 90 c-12 -7 -12 -12 -2 -22 9 -9 15 -9 24 0 16 16 -2 34 -22 22z"/>
<path d="M685 80 c-3 -5 -1 -10 4 -10 6 0 11 5 11 10 0 6 -2 10 -4 10 -3 0 -8
-4 -11 -10z"/>
<path d="M623 53 c-18 -6 -16 -23 1 -23 17 0 30 16 19 23 -5 2 -14 2 -20 0z"/>
<path d="M6677 41 c-34 -39 -31 -41 47 -41 42 0 76 3 76 8 -2 37 -97 64 -123
33z"/>
<path d="M280 15 c-10 -13 -9 -15 9 -15 12 0 21 6 21 15 0 8 -4 15 -9 15 -5 0
-14 -7 -21 -15z"/>
<path d="M460 16 c0 -10 9 -16 21 -16 24 0 21 23 -4 28 -10 2 -17 -3 -17 -12z"/>
<path d="M7831 14 c0 -11 3 -14 6 -6 3 7 2 16 -1 19 -3 4 -6 -2 -5 -13z"/>
<path d="M650 10 c0 -5 5 -10 10 -10 6 0 10 5 10 10 0 6 -4 10 -10 10 -5 0
-10 -4 -10 -10z"/>
</g>
</svg>
